PathFileType	4	(X/Y/Z)	Patient4_TMGait_0pt7_02_left_20.trc.trc
DataRate	CameraRate	NumFrames	NumMarkers	Units	OrigDataRate	OrigDataStartFrame	OrigNumFrames
84.848484848485	84.848484848485	4	33	mm	84.848484848485	106	       141
Frame#	Time	Sacral			L.Shoulder			Chest			R.Shoulder			Neck			R.ASIS			L.ASIS			R.Thigh.Superior			R.Thigh.Lateral			R.Thigh.Inferior			R.Patella			L.Thigh.Superior			L.Thigh.Lateral			L.Thigh.Inferior			L.Patella			L.Shank.Superior			L.Shank.Lateral			L.Shank.Inferior			R.Shank.Superior			R.Shank.Lateral			R.Shank.Inferior			R.Heel			R.Midfoot.Superior			R.Midfoot.Lateral			R.Toe			L.Heel			L.Midfoot.Lateral			L.Midfoot.Superior			L.Toe			L.Elbow			L.Wrist			R.Elbow			R.Wrist			
		X1	Y1	Z1	X2	Y2	Z2	X3	Y3	Z3	X4	Y4	Z4	X5	Y5	Z5	X6	Y6	Z6	X7	Y7	Z7	X8	Y8	Z8	X9	Y9	Z9	X10	Y10	Z10	X11	Y11	Z11	X12	Y12	Z12	X13	Y13	Z13	X14	Y14	Z14	X15	Y15	Z15	X16	Y16	Z16	X17	Y17	Z17	X18	Y18	Z18	X19	Y19	Z19	X20	Y20	Z20	X21	Y21	Z21	X22	Y22	Z22	X23	Y23	Z23	X24	Y24	Z24	X25	Y25	Z25	X26	Y26	Z26	X27	Y27	Z27	X28	Y28	Z28	X29	Y29	Z29	X30	Y30	Z30	X31	Y31	Z31	X32	Y32	Z32	X33	Y33	Z33	

106	23.887500000000	822.954693519087	1011.516757805749	536.212622728197	1002.726410968905	1428.086248360851	326.984038792411	1121.237726553647	1354.957976732096	476.683876757888	1063.887095427212	1438.642416813418	656.632372654663	1026.995763854376	1490.421458380813	478.114611240844	1058.276876254302	939.197045394049	631.040186397122	1016.887116097379	960.786430938639	359.872982818011	1089.711920249840	737.485728861211	599.692756377683	1006.282210774641	630.794492641715	660.233816644141	1078.173897953803	576.892275454821	576.710452018771	1074.092751906290	486.679009622006	581.351720652789	1114.996933512518	802.384521109858	387.575995989992	1088.164175928050	673.763786723832	305.139028168879	1200.416388937729	623.684929518466	365.444602352236	1226.444856975251	536.665283430301	354.250983492646	1169.930599134646	461.762171253138	346.976877348155	1035.737012898387	396.723446978272	302.840977349734	1049.129567997225	265.903855102986	353.532111762010	1039.733450679584	400.262267521158	588.063177374386	962.660494977773	300.610943075357	648.628074206662	996.674700680090	204.106373582772	582.924053598504	852.346942999759	44.272777518447	551.481092086677	1024.030738352973	97.108226753802	589.691889005784	934.693183788790	37.421578652829	626.594452096388	1143.242029662976	41.221583296975	619.637791915749	875.725391591505	169.652489324258	397.933998918293	935.194680452028	135.527399720753	313.433675471760	1038.713661657730	159.194943403721	330.086011113379	1131.020165179070	61.450797378816	294.520681431896	935.369576125173	1075.512365710508	236.322467132382	961.970897054441	815.815590154039	228.670041868718	1052.717077722905	1094.739211996085	793.083725554049	1251.886122255837	931.860788825783	760.354101058403	
107	23.899285714286	821.305159264245	1012.184254778228	536.926876279780	1000.879965631526	1427.982769455989	326.862327115738	1120.236457166099	1354.748541373552	475.769398965806	1064.311545667598	1438.634622558064	656.150632996882	1026.079457687145	1490.444779480129	477.835508923053	1056.865279810765	939.098530606097	630.828654660262	1014.657786091524	960.986060121231	359.687252158973	1085.625969296743	736.650827472257	598.835943621749	1001.411970646500	630.761928038318	660.316014492997	1071.936714796783	575.990436763365	576.396326493561	1066.621998013305	486.200898196481	581.038273106586	1113.709420758161	805.178211782502	388.091577853420	1089.358580143856	676.153490351349	305.305888836973	1201.834881463029	627.807820044837	366.148458427077	1229.885906564342	542.001330184731	354.841861526695	1176.756970319366	465.627362964089	347.192596226358	1046.399346309762	393.770191694382	302.397147353527	1066.723938095021	263.509345231047	352.824728114229	1032.265120136651	399.940801294385	587.970475096754	955.115890632120	300.462060070807	648.785725520013	988.643355360122	203.904563289251	582.914667439587	844.023671607940	44.191425055052	551.624672545675	1015.615224889419	97.005601092089	589.654418928188	926.347941068018	37.353754198926	626.678491822108	1134.899105988224	41.219301066709	619.662155925780	898.755661767394	157.425641751198	396.455574958819	960.257115969894	127.218997839782	311.953889331677	1062.254614969799	156.609585767608	329.040900671207	1160.123663285184	64.477475477595	293.278711987975	925.695696683687	1076.635278798513	237.811510618469	937.855206882333	815.947070109755	232.248886042969	1064.297309554536	1095.053959154648	793.109610060404	1273.846091459045	948.214379921157	754.613386788256	
108	23.911071428571	819.750759843470	1012.794929825206	537.378679242316	999.115788466877	1427.932678830080	326.693492342401	1119.293735213874	1354.475197044312	474.760517493958	1064.792232678263	1438.486827292120	655.603834381028	1025.236993805230	1490.422957506479	477.543651653124	1055.450855990253	939.011442893279	630.495269976013	1012.637798579912	961.018611794959	359.322196340745	1081.442254719086	735.802658147105	598.062901111908	996.276929773311	630.766946233482	660.391772710927	1065.450137940632	575.081541185878	576.188466682634	1058.868298554786	485.800533960482	580.798638843032	1112.197368137835	807.433115878979	388.627327586245	1090.073908494629	678.031943471393	305.504351188449	1202.573645564260	631.177683456174	366.940783022102	1232.487706028667	546.711631084036	355.638616257137	1182.873144863360	469.081542667253	347.590801735649	1057.034904343066	390.478012828836	301.730513302907	1084.222022745981	261.189363705380	352.091061268973	1024.561902596268	399.679953141502	587.914340995526	947.382735159336	300.333372176053	648.983414897864	980.496228955530	203.745207930833	582.938351325627	835.695534827586	44.102589151146	551.776788852991	1007.205526722625	96.916812650425	589.637151139900	917.997267459103	37.278528383696	626.755825756634	1126.555743422210	41.227440107205	619.671853571042	922.298330050886	145.429435989342	394.437933559111	985.904448228145	119.315995925864	310.208178812067	1085.902382690311	154.402096692284	328.088460657158	1189.141611517798	68.263488017654	292.606330354881	915.431640778289	1078.293035595928	238.851710201171	915.022267831484	817.482978954940	236.006939985968	1075.985241595680	1095.663304551794	792.798385233899	1294.611112957824	965.793055824159	748.280505102977	
109	23.922857142857	818.330347605577	1013.331868066101	537.573299273896	997.423921077660	1427.941175478487	326.475806993022	1118.400939163315	1354.150684918570	473.658691837024	1065.317835017872	1438.208083101683	654.986921257745	1024.460911905307	1490.355860651961	477.234694521566	1054.052969496807	938.950358562265	630.043714568544	1010.846964201947	960.870674680498	358.784896228536	1077.185523825558	734.942782519004	597.440695610577	990.855223624144	630.819074234740	660.474362914223	1058.711331400882	574.176350479596	576.127105678627	1050.842931747870	485.481581134827	580.663297842866	1110.499377595379	809.101665855200	389.169778271941	1090.298105521408	679.340348128537	305.722289617246	1202.651904265166	633.716063533587	367.781005355862	1234.257923643766	550.715795608088	356.621281455657	1188.243165080606	472.064992251007	348.176851337054	1067.606982030883	386.890037919882	300.824581248034	1101.465843815957	258.995592307761	351.367192116454	1016.618572260315	399.491313032937	587.913572277569	939.446038682592	300.238048947544	649.231214098801	972.234083292657	203.639011220099	583.005769883911	827.359338165426	44.013007552921	551.928937045372	998.807789264796	96.846653923207	589.648617042235	909.642956163714	37.200438794851	626.827648955517	1118.213339387933	41.244807291193	619.670571059277	946.143863719750	133.829168092443	391.896776988317	1011.938137636169	111.951316001346	308.250263264591	1109.446582265612	152.650527022657	327.289754530049	1217.809966233135	72.861216369036	292.641889057316	904.682592885856	1080.506056301596	239.507263910673	893.510590568453	820.160031897919	239.906659303603	1087.759334663096	1096.566678006771	792.122369479047	1314.029463186254	984.401248834514	741.447163017315	
